<svg xmlns="http://www.w3.org/2000/svg" viewBox="0 0 150 150"><defs><style>.cls-1{fill:#fff;}.cls-2{fill:#1d2d5b;}.cls-3{fill:#4fc2be;}</style></defs><g id="Layer_2" data-name="Layer 2"><g id="Header"><g id="logo"><g id="Logo-group"><rect id="background-white" class="cls-1" width="150" height="150"/><g id="logo-2" data-name="logo"><rect id="bottom-rect-blue" class="cls-2" x="63.25" y="96.47" width="23.49" height="23.49" transform="translate(-54.56 84.73) rotate(-45)"/><rect id="center-rect-green" class="cls-3" x="67.17" y="67.17" width="15.66" height="15.66" transform="translate(-31.07 75) rotate(-45)"/><path id="left-wing" class="cls-2" d="M72.23,61.16l-6.92-6.92a13.71,13.71,0,0,0-19.38,0l-4.15,4.15L39,61.16,25.86,74.31a1,1,0,0,0,0,1.38L41.78,91.61l4.15,4.15a13.71,13.71,0,0,0,19.38,0l6.92-6.92L58.39,75Z"/><path id="right-wing" class="cls-2" d="M124.14,74.31,111,61.16l-2.77-2.77-4.15-4.15a13.71,13.71,0,0,0-19.38,0l-6.92,6.92L91.61,75,77.77,88.84l6.92,6.92a13.71,13.71,0,0,0,19.38,0l4.15-4.15,15.92-15.92A1,1,0,0,0,124.14,74.31Z"/><rect id="top-rect-blue" class="cls-2" x="63.25" y="30.03" width="23.49" height="23.49" transform="translate(-7.58 65.27) rotate(-45)"/></g></g></g></g></g></svg>