<svg xmlns="http://www.w3.org/2000/svg" viewBox="0 0 75 75"><defs><style>.cls-1{fill:#fff;}.cls-2{fill:#1d2d5b;}.cls-3{fill:#4fc2be;}</style></defs><g id="Layer_2" data-name="Layer 2"><g id="Header"><g id="logo"><g id="Logo-group"><rect id="background-white" class="cls-1" width="75" height="75"/><g id="logo-2" data-name="logo"><rect id="bottom-rect-blue" class="cls-2" x="31.63" y="48.24" width="11.75" height="11.75" transform="translate(-27.28 42.36) rotate(-45)"/><rect id="center-rect-green" class="cls-3" x="33.58" y="33.58" width="7.83" height="7.83" transform="translate(-15.53 37.5) rotate(-45)"/><path id="left-wing" class="cls-2" d="M36.12,30.58l-3.46-3.46a6.84,6.84,0,0,0-9.69,0l-2.08,2.07-1.38,1.39-6.58,6.57a.5.5,0,0,0,0,.7l8,7.95L23,47.88a6.84,6.84,0,0,0,9.69,0l3.46-3.46L29.19,37.5Z"/><path id="right-wing" class="cls-2" d="M62.07,37.15l-6.58-6.57-1.38-1.39L52,27.12a6.84,6.84,0,0,0-9.69,0l-3.46,3.46,6.93,6.92-6.93,6.92,3.46,3.46a6.84,6.84,0,0,0,9.69,0l2.08-2.08,8-7.95A.5.5,0,0,0,62.07,37.15Z"/><rect id="top-rect-blue" class="cls-2" x="31.63" y="15.02" width="11.75" height="11.75" transform="translate(-3.79 32.64) rotate(-45)"/></g></g></g></g></g></svg>