<svg xmlns="http://www.w3.org/2000/svg" viewBox="0 0 80.27 48.91"><defs><style>.cls-1{fill:#1d2d5b;}.cls-2{fill:#4fc2be;}.cls-3{fill:#fff;}</style></defs><g id="Layer_2" data-name="Layer 2"><g id="truck"><g id="rear-wheel"><path class="cls-1" d="M27.18,40.05A8.64,8.64,0,0,1,26,44.39l-4.25-2.45a3.76,3.76,0,0,0,.51-1.89,3.68,3.68,0,0,0-.51-1.88L26,35.72A8.63,8.63,0,0,1,27.18,40.05Z"/><path class="cls-2" d="M26,35.72l-4.25,2.45a3.78,3.78,0,0,0-3.26-1.89v-4.9A8.65,8.65,0,0,1,26,35.72Z"/><path class="cls-1" d="M18.51,31.38v4.9a3.76,3.76,0,0,0-3.26,1.89L11,35.72A8.66,8.66,0,0,1,18.51,31.38Z"/><path class="cls-2" d="M14.74,40.05a3.66,3.66,0,0,0,.51,1.89L11,44.39a8.68,8.68,0,0,1,0-8.67l4.26,2.45A3.68,3.68,0,0,0,14.74,40.05Z"/><path class="cls-1" d="M18.51,43.82v4.91A8.66,8.66,0,0,1,11,44.39l4.26-2.45A3.73,3.73,0,0,0,18.51,43.82Z"/><path class="cls-2" d="M26,44.39a8.65,8.65,0,0,1-7.51,4.34V43.82a3.78,3.78,0,0,0,3.26-1.88Z"/><path class="cls-1" d="M22.28,40.05a3.77,3.77,0,0,1-7,1.89,3.74,3.74,0,0,1,0-3.77,3.76,3.76,0,0,1,6.52,0A3.68,3.68,0,0,1,22.28,40.05Z"/><circle class="cls-3" cx="18.5" cy="40.06" r="1.8"/><path class="cls-3" d="M18.5,32.12a7.94,7.94,0,1,1-7.93,7.94,7.95,7.95,0,0,1,7.93-7.94m0-.92a8.86,8.86,0,1,0,8.86,8.86A8.86,8.86,0,0,0,18.5,31.2Z"/></g><g id="front-wheel"><path class="cls-1" d="M57.38,40.05a8.54,8.54,0,0,0,1.17,4.34l4.25-2.45a3.76,3.76,0,0,1-.51-1.89,3.68,3.68,0,0,1,.51-1.88l-4.25-2.45A8.53,8.53,0,0,0,57.38,40.05Z"/><path class="cls-2" d="M58.55,35.72l4.25,2.45a3.76,3.76,0,0,1,3.26-1.89v-4.9A8.63,8.63,0,0,0,58.55,35.72Z"/><path class="cls-1" d="M66.06,31.38v4.9a3.77,3.77,0,0,1,3.26,1.89l4.25-2.45A8.64,8.64,0,0,0,66.06,31.38Z"/><path class="cls-2" d="M69.83,40.05a3.76,3.76,0,0,1-.51,1.89l4.25,2.45a8.62,8.62,0,0,0,0-8.67l-4.25,2.45A3.68,3.68,0,0,1,69.83,40.05Z"/><path class="cls-1" d="M66.06,43.82v4.91a8.64,8.64,0,0,0,7.51-4.34l-4.25-2.45A3.74,3.74,0,0,1,66.06,43.82Z"/><path class="cls-2" d="M58.55,44.39a8.63,8.63,0,0,0,7.51,4.34V43.82a3.75,3.75,0,0,1-3.26-1.88Z"/><path class="cls-1" d="M62.29,40.05a3.77,3.77,0,0,0,7.54,0,3.68,3.68,0,0,0-.51-1.88,3.76,3.76,0,0,0-6.52,0A3.68,3.68,0,0,0,62.29,40.05Z"/><circle class="cls-3" cx="66.06" cy="40.06" r="1.8"/><path class="cls-3" d="M66.06,32.12a7.94,7.94,0,1,1-7.94,7.94,7.95,7.95,0,0,1,7.94-7.94m0-.92a8.86,8.86,0,1,0,8.85,8.86,8.86,8.86,0,0,0-8.85-8.86Z"/></g><g id="Truck-body"><path id="truck-body-2" data-name="truck-body" class="cls-3" d="M80.27,10.73V37.06h-4a10.63,10.63,0,0,0-20.4,0H28.71a10.64,10.64,0,0,0-20.41,0H0V25.72H54.51V0h15A10.72,10.72,0,0,1,80.27,10.73Z"/><path id="truck-window" class="cls-1" d="M64.26,7.27h5.16a4.49,4.49,0,0,1,4.49,4.49v8.93a0,0,0,0,1,0,0H64.26a0,0,0,0,1,0,0V7.27A0,0,0,0,1,64.26,7.27Z"/></g><rect id="center-rect-green" class="cls-2" x="4.55" y="7.27" width="18.25" height="18.25"/><rect id="center-rect-green-2" data-name="center-rect-green" class="cls-2" x="31.91" y="7.27" width="18.25" height="18.25"/></g></g></svg>